<?xml version="1.0" encoding="utf-8"?>
<!-- Generator: Adobe Illustrator 27.5.0, SVG Export Plug-In . SVG Version: 6.00 Build 0)  -->
<svg version="1.1" xmlns="http://www.w3.org/2000/svg" xmlns:xlink="http://www.w3.org/1999/xlink" x="0px" y="0px"
	 viewBox="0 0 500 500" style="enable-background:new 0 0 500 500;" xml:space="preserve">
<g id="BACKGROUND">
	<rect style="fill:#FFFFFF;" width="500" height="500"/>
</g>
<g id="OBJECTS">
	<g>
		<g>
			<path style="fill:#EAF1F4;" d="M455.639,250c0,113.572-92.068,205.639-205.639,205.639S60.229,372.661,60.229,259.09
				s121.766,8.996,225.745-80.504C372.05,104.496,455.639,136.428,455.639,250z"/>
			<g>
				<path style="fill:#EAF1F4;" d="M166.22,102.137c-43.493,8.856-72.968,19.477-51.006,56.852
					c21.962,37.375,127.466,2.812,131.29-36.896C250.328,82.386,207.991,93.632,166.22,102.137z"/>
				<path style="fill:#EAF1F4;" d="M285.771,97.025c6.784-29.775,63.529-19.22,60.622,7.505
					C343.485,131.255,276.762,136.564,285.771,97.025z"/>
			</g>
			<g>
				<defs>
					<circle id="SVGID_1_" cx="250" cy="250" r="205.639"/>
				</defs>
				<clipPath id="SVGID_00000051364705175772047350000015289874178282405808_">
					<use xlink:href="#SVGID_1_"  style="overflow:visible;"/>
				</clipPath>
				<g style="clip-path:url(#SVGID_00000051364705175772047350000015289874178282405808_);">
					<g>
						<g>
							<g>
								<path style="fill:#60A555;" d="M246.75,311.352c0,0-7.684,2.152-21.054,21.054c-13.37,18.903-31.043,73.305-31.812,96.357
									s21.054,31.812,84.524,21.054s58.398-73.92,58.398-73.92l5.071-48.563L246.75,311.352z"/>
								<path style="fill:#60A555;" d="M390.319,448.644c-11.915,7.017-35.229,7.819-74.433,1.174
									c-47.089-7.981-56.451-44.807-58.146-63.284c-0.59-6.428-0.252-10.636-0.252-10.636l-0.681-6.528l-0.682,6.528
									c0,0,0.326,4.059-0.221,10.295c-1.612,18.362-10.798,55.595-58.177,63.625c-43.877,7.437-67.851,5.546-78.217-3.947
									c-4.629-4.238-6.544-9.992-6.307-17.108c0.768-23.052,18.442-77.455,31.812-96.357
									c13.37-18.903,21.054-21.054,21.054-21.054l90.739,15.245l90.737-15.245c0,0,7.684,2.152,21.054,21.054
									c13.37,18.903,31.043,73.305,31.812,96.357C400.703,437.577,397.695,444.301,390.319,448.644z"/>
								<path style="opacity:0.63;fill:#327F61;" d="M178.67,392.956c-43.952-10.45-56.554,21.362-56.554,21.362
									c4.61-33.502,42.262-36.73,42.262-36.73c-6.762-28.277-0.768-52.866-0.768-52.866s2.305,16.444,10.758,22.13
									c0,0,54.71,0.154,74.381,0.461c19.671,0.307,72.69-1.69,79.606-0.768c6.916,0.922,14.907-11.987,19.056-21.823
									c0,0,5.993,24.589-0.768,52.866c0,0,37.652,3.227,42.262,36.73c0,0-12.602-31.812-56.554-21.362"/>
								<g>
									<g>
										<path style="fill:#374D6D;" d="M171.698,387.151c-4.418-19.349-7.669-55.536-7.702-55.899l1.684-0.15
											c0.032,0.362,3.273,36.435,7.666,55.672L171.698,387.151z"/>
									</g>
									<g>
										<path style="fill:#374D6D;" d="M125.091,410.511l-1.648-0.377c0.029-0.129,0.744-3.197,2.991-7.206
											c2.069-3.691,5.887-8.906,12.332-12.785c10.654-6.414,24.878-7.294,42.275-2.614l-0.439,1.632
											c-16.921-4.551-30.694-3.74-40.937,2.413c-6.116,3.674-9.749,8.617-11.721,12.117
											C125.798,407.502,125.098,410.481,125.091,410.511z"/>
									</g>
								</g>
								<g>
									<g>
										<path style="fill:#374D6D;" d="M339.331,387.151c4.418-19.349,7.67-55.536,7.702-55.899l-1.684-0.15
											c-0.032,0.362-3.273,36.435-7.666,55.672L339.331,387.151z"/>
									</g>
									<g>
										<path style="fill:#374D6D;" d="M385.938,410.511l1.648-0.377c-0.029-0.129-0.745-3.197-2.991-7.206
											c-2.069-3.691-5.887-8.906-12.332-12.785c-10.654-6.414-24.878-7.294-42.275-2.614l0.439,1.632
											c16.921-4.551,30.694-3.74,40.937,2.413c6.116,3.674,9.75,8.617,11.721,12.117
											C385.231,407.502,385.931,410.481,385.938,410.511z"/>
									</g>
								</g>
								<path style="opacity:0.63;fill:#327F61;" d="M255.903,386.193c-1.612,18.362-10.798,55.595-58.177,63.625
									c-43.877,7.437-67.851,5.546-78.217-3.947c17.315,5.239,55.695,11.501,55.933-35.857
									C175.597,379.164,215.948,378.887,255.903,386.193z"/>
								<path style="opacity:0.63;fill:#327F61;" d="M390.319,448.644c-11.915,7.017-35.229,7.819-74.433,1.174
									c-47.089-7.981-56.451-44.807-58.146-63.284c38.626,7.283,76.301,21.329,76.301,21.329S334.341,461.295,390.319,448.644z"/>
							</g>
							<g>
								<path style="fill:#CDE281;" d="M270.877,326.72l-12.018,18.612c-0.781,0.364-1.445,0.582-1.97,0.713
									c-0.526-0.131-1.191-0.349-1.972-0.713c-0.93-0.433-2.025-1.073-3.25-2.015c0,0-8.368-1.563-20.312-3.967
									c-0.801-0.161-1.617-0.326-2.448-0.495c-7.085-1.435-15.233-3.13-23.548-4.949c-1.568-0.343-3.14-0.69-4.713-1.04
									c-24.394-5.437-32.768-15.651-33.456-16.536c-0.031-0.04-0.046-0.061-0.046-0.061s-0.18,0.277-0.473,0.624
									c-0.61,0.719-1.717,1.738-2.754,1.22c-1.537-0.768-4.457-6.762-4.764-10.297c-0.034-0.398,0.038-0.931,0.2-1.592
									c1.276-5.213,8.122-18.343,11.941-34.984c0.049-0.217,0.103-0.43,0.163-0.641c1.033-3.787,3.353-6.765,6.582-9.307
									c11.842-9.324,35.892-12.779,53.442-28.668c0.536-0.487,1.068-0.985,1.592-1.495c10.742-10.45,18.566-7.105,23.817-0.721
									c2.238,2.72,4.008,5.992,5.337,8.981c2.115,4.753,3.118,8.798,3.118,8.798L270.877,326.72z"/>
								<path style="fill:#CDE281;" d="M354.625,307.818c-0.307,3.535-3.227,9.528-4.764,10.297
									c-1.037,0.518-2.144-0.501-2.754-1.22c-0.293-0.347-0.473-0.624-0.473-0.624s-0.015,0.021-0.046,0.061
									c-0.688,0.885-9.063,11.099-33.456,16.536c-1.574,0.35-3.146,0.698-4.713,1.04c-8.317,1.818-16.465,3.513-23.55,4.949
									c-0.831,0.169-1.647,0.333-2.447,0.495c-11.944,2.404-20.312,3.967-20.312,3.967c-1.225,0.942-2.321,1.581-3.25,2.015
									c-0.781,0.364-1.445,0.582-1.97,0.713c-0.526-0.131-1.191-0.349-1.972-0.713L242.9,326.72l5.533-78.53
									c0,0,1.004-4.045,3.118-8.798c1.329-2.989,3.1-6.261,5.339-8.981c5.25-6.384,13.074-9.729,23.816,0.721
									c0.524,0.51,1.056,1.008,1.592,1.495c17.55,15.889,41.599,19.344,53.442,28.668c3.229,2.542,5.549,5.52,6.582,9.307
									c0.06,0.211,0.114,0.424,0.163,0.641c3.819,16.64,10.665,29.771,11.941,34.984
									C354.587,306.886,354.659,307.42,354.625,307.818z"/>
								<g>
									<path style="opacity:0.33;fill:#F9F8E5;" d="M171.456,270.601c1.95,4.019,5.305,13.633-0.778,23.693
										c-3.439,5.689-7.647,9.47-11.326,11.932c1.276-5.213,8.122-18.343,11.941-34.984
										C171.342,271.025,171.396,270.812,171.456,270.601z"/>
									<path style="opacity:0.33;fill:#F9F8E5;" d="M231.48,232.627c-2.133,5.301-7.433,13.716-20.384,19.251
										c-14.998,6.411-24.195,4.89-33.058,9.416C189.88,251.971,213.93,248.516,231.48,232.627z"/>
									<path style="opacity:0.57;fill:#84C16F;" d="M316.205,302.746c-11.987,21.822-31.043,23.974-42.877,31.658
										c-7.835,5.087,3.194,5.055,11.54,4.452c-0.831,0.169-1.647,0.333-2.447,0.495c-11.944,2.404-20.312,3.967-20.312,3.967
										c-1.225,0.942-2.321,1.581-3.25,2.015c-0.781,0.364-1.445,0.582-1.97,0.713c-0.526-0.131-1.191-0.349-1.972-0.713
										c-0.93-0.433-2.025-1.073-3.25-2.015c0,0-8.368-1.563-20.312-3.967c-0.801-0.161-1.617-0.326-2.448-0.495
										c8.348,0.602,19.376,0.636,11.541-4.452c-11.833-7.684-30.89-9.836-42.877-31.658c-8.669-15.781-4.478-29.313-1.494-35.595
										c0.121-0.254,0.381-0.293,0.576-0.2c0.169,0.083,0.287,0.267,0.223,0.501c-1.729,6.258-1.91,11.723-1.149,13.625
										c0.922,2.305,12.602-2.152,29.046-17.366c16.444-15.214,13.37-29.045,13.37-29.045c5.549-0.87,9.94,1.002,13.407,4.726
										c2.102,2.259,3.863,5.201,5.337,8.626c1.474-3.425,3.235-6.367,5.339-8.626c3.465-3.724,7.858-5.595,13.407-4.726
										c0,0-3.074,13.831,13.37,29.045c16.444,15.214,28.123,19.671,29.045,17.366c0.761-1.903,0.579-7.367-1.149-13.625
										c-0.065-0.234,0.054-0.418,0.223-0.501c0.194-0.094,0.455-0.054,0.575,0.2
										C320.682,273.433,324.874,286.965,316.205,302.746z"/>
									<path style="opacity:0.52;fill:#60A555;" d="M205.359,333.908c-1.568-0.343-3.14-0.69-4.713-1.04
										c-24.394-5.437-32.768-15.651-33.456-16.536c0.287-1.064,0.518-2.448,0.569-4.211c0.154-5.379,7.377,12.602,30.736,19.517
										C201.015,332.385,203.295,333.144,205.359,333.908z"/>
								</g>
								<g>
									<path style="opacity:0.33;fill:#F9F8E5;" d="M342.321,270.601c-1.95,4.019-5.305,13.633,0.778,23.693
										c3.439,5.689,7.647,9.47,11.326,11.932c-1.276-5.213-8.122-18.343-11.941-34.984
										C342.435,271.025,342.381,270.812,342.321,270.601z"/>
									<path style="opacity:0.33;fill:#F9F8E5;" d="M282.297,232.627c2.133,5.301,7.433,13.716,20.384,19.251
										c14.998,6.411,24.195,4.89,33.058,9.416C323.896,251.971,299.847,248.516,282.297,232.627z"/>
									<path style="opacity:0.52;fill:#60A555;" d="M318.51,284.612c-26.587-5.379-47.948-36.422-47.948-36.422l-13.673,73.99
										l-13.673-73.99c0,0-21.361,31.043-47.948,36.422l-0.768-1.69c0,0,1.998,18.288,15.368,30.121
										c13.37,11.833,32.887,18.288,40.418,25.204c3.048,2.799,5.165,3.156,6.604,2.589c1.44,0.567,3.556,0.211,6.604-2.589
										c7.53-6.916,27.048-13.37,40.418-25.204c13.37-11.833,15.368-30.121,15.368-30.121L318.51,284.612z"/>
									<path style="opacity:0.52;fill:#60A555;" d="M308.418,333.908c1.567-0.343,3.14-0.69,4.713-1.04
										c24.394-5.437,32.767-15.651,33.456-16.536c-0.287-1.064-0.518-2.448-0.569-4.211c-0.154-5.379-7.377,12.602-30.736,19.517
										C312.762,332.385,310.482,333.144,308.418,333.908z"/>
								</g>
								<path style="fill:#8EADCE;" d="M239.834,252.186c0,0,24.742-4.918,31.965,0c7.223,4.918,4.303,15.214,4.303,15.214
									l-36.422-1.229l-1.998-6.916L239.834,252.186z"/>
								<path style="fill:#FFC3B3;" d="M252.128,272.164c0,0-0.916,2.184-2.004,5.533c-0.427,1.317-0.882,2.814-1.319,4.429
									c-4.217-5.362-7.902-11.515-7.128-15.955c0.146-0.841,0.263-1.753,0.353-2.72
									C243.762,266.593,246.837,270.32,252.128,272.164z"/>
								<path style="fill:#FFC3B3;" d="M275.027,264.787l-0.615,2.459l-9.316,16.519c-0.556-2.245-1.174-4.317-1.743-6.069
									c-1.088-3.349-2.004-5.533-2.004-5.533c7.266-2.533,10.352-8.614,11.518-11.859c0.025-0.069,0.048-0.135,0.071-0.201
									C273.986,263.183,275.027,264.787,275.027,264.787z"/>
								<path style="fill:#EEF9FF;" d="M317.244,287.225c0,0-5.071,21.361-29.046,33.195c-25.263,12.47-25.658,18.857-30.942,19.052
									c-0.02,0.002-0.038,0.005-0.057,0.005c-0.034,0-0.066,0-0.098-0.002c-0.034,0.002-0.066,0.002-0.1,0.002
									c-0.018,0-0.037-0.003-0.055-0.005c-5.285-0.195-5.68-6.582-30.943-19.052c-23.974-11.833-29.045-33.195-29.045-33.195
									c4.878-1.77,9.714-4.185,14.212-6.797c10.406-6.044,18.996-13.152,22.07-15.803c0.79-0.679,1.216-1.066,1.216-1.066
									c2.122-1.58,4.199-2.574,6.212-3.097c1.208,3.281,4.311,9.21,11.461,11.703c0,0,3.787,0,4.61,9.722
									c0.824-9.722,4.61-9.722,4.61-9.722c7.266-2.533,10.352-8.614,11.518-11.859c2.219,0.466,4.52,1.498,6.879,3.253
									c0,0,0.134,0.121,0.39,0.349c2.033,1.795,11.778,10.192,23.75,17.011C308.14,283.343,312.674,285.566,317.244,287.225z"/>
								<g>
									<path style="fill:#EEF9FF;" d="M233.496,361.727L233.496,361.727c-1.029-0.899-1.156-2.447-0.298-3.511
										c4.547-5.638,6.75-10.451,7.809-13.617c1.264-3.78,1.212-6.08,1.211-6.103l0.001,0.021l2.191-0.101
										c1.603-0.074,2.877,1.341,2.622,2.925c-0.629,3.914-2.762,11.241-9.901,20.077
										C236.23,362.534,234.577,362.671,233.496,361.727z"/>
								</g>
								<g>
									<path style="fill:#EEF9FF;" d="M279.702,361.727L279.702,361.727c1.029-0.899,1.156-2.447,0.298-3.511
										c-4.547-5.638-6.75-10.451-7.808-13.617c-1.264-3.78-1.212-6.08-1.211-6.103l-0.001,0.021l-2.191-0.101
										c-1.603-0.074-2.877,1.341-2.622,2.925c0.629,3.914,2.763,11.241,9.901,20.077
										C276.968,362.534,278.621,362.671,279.702,361.727z"/>
								</g>
								<path style="opacity:0.67;fill:#D7E9F4;" d="M317.244,287.225c0,0-5.071,21.361-29.046,33.195
									c-23.29,11.495-25.445,17.821-29.778,18.893c-0.367,0.091-0.75,0.143-1.163,0.158c-0.02,0.002-0.038,0.005-0.057,0.005
									c-0.029,0-0.057,0-0.085-0.002h-0.014c-0.034,0.002-0.066,0.002-0.1,0.002c-0.018,0-0.037-0.003-0.055-0.005
									c-0.404-0.015-0.779-0.066-1.139-0.152c-4.352-1.054-6.471-7.383-29.805-18.9c-23.974-11.833-29.045-33.195-29.045-33.195
									c4.878-1.77,9.714-4.185,14.212-6.797c-2.347,5.457-3.046,14.311,7.456,25.085c13.664,14.017,21.369,21.714,37.023,19.285
									c0.429-0.066,0.864-0.14,1.305-0.223c0.429-0.078,0.862-0.165,1.303-0.26c4.149-0.885,8.847-2.419,14.311-4.664
									c16.86-6.926,26.37-25.094,31.318-38.733C308.14,283.343,312.674,285.566,317.244,287.225z"/>
							</g>
							<g>
								<path style="fill:#FFC3B3;" d="M275.027,264.787l-0.615,2.459l-6.62,11.738l-2.695,4.781
									c-0.535-2.158-1.125-4.154-1.675-5.86c-0.023-0.071-0.045-0.14-0.068-0.209c-2.394,0.97-4.295,4.365-5.522,7.22l0.078,7.244
									c-0.386-0.376-0.83-0.816-1.32-1.309c-0.41-0.413-0.854-0.867-1.322-1.354l-0.06-5.559
									c-1.222-2.609-2.958-5.382-5.084-6.242c-0.042,0.128-0.083,0.257-0.124,0.387c-0.39,1.22-0.801,2.583-1.194,4.042
									c-0.808-1.028-1.598-2.086-2.34-3.154c-3.126-4.504-5.414-9.213-4.787-12.802c0.146-0.841,0.263-1.753,0.353-2.72
									c0.263-2.805,0.307-6.061,0.234-9.308c-0.006-0.277-0.012-0.552-0.021-0.827c-0.002-0.054-0.003-0.108-0.005-0.161
									c-0.006-0.241-0.014-0.483-0.023-0.722c-0.003-0.088-0.006-0.175-0.009-0.261c-0.012-0.327-0.025-0.655-0.038-0.979
									c-0.014-0.324-0.029-0.647-0.045-0.968c-0.246-5.119-0.696-9.722-0.922-11.85c-0.085-0.798-0.138-1.248-0.138-1.248
									s0.304-0.205,0.851-0.56c1.157-0.75,3.404-2.173,6.181-3.771c0.609-0.35,1.242-0.708,1.895-1.07
									c9.783-5.413,23.957-11.518,22.788-0.67c-0.063,0.595-0.174,1.242-0.333,1.941c-0.009,0.045-0.02,0.089-0.031,0.134
									c-0.055,0.235-0.109,0.469-0.161,0.702c-0.015,0.074-0.032,0.148-0.048,0.22c-0.045,0.204-0.089,0.407-0.132,0.609
									c-0.006,0.031-0.012,0.061-0.018,0.092c-0.046,0.221-0.091,0.441-0.134,0.659c-0.003,0.017-0.006,0.032-0.009,0.049
									c-0.048,0.241-0.094,0.481-0.137,0.719c-0.037,0.195-0.071,0.39-0.105,0.583c-0.023,0.126-0.045,0.252-0.064,0.378
									c-0.042,0.241-0.08,0.481-0.117,0.718c-0.031,0.195-0.06,0.389-0.088,0.583c-0.035,0.238-0.069,0.475-0.1,0.71
									c0,0.005-0.001,0.008-0.001,0.012c0,0.003,0,0.006-0.001,0.009c-0.021,0.158-0.042,0.315-0.06,0.472
									c-0.009,0.071-0.018,0.141-0.026,0.21c-0.046,0.378-0.088,0.753-0.124,1.123c-0.051,0.496-0.094,0.987-0.129,1.468
									c-0.009,0.118-0.018,0.235-0.025,0.353c-0.005,0.058-0.008,0.117-0.012,0.175c-0.015,0.223-0.028,0.446-0.038,0.665
									c-0.003,0.049-0.006,0.098-0.008,0.147c-0.008,0.146-0.014,0.294-0.02,0.438c-0.005,0.095-0.008,0.192-0.011,0.287
									c-0.005,0.126-0.009,0.252-0.012,0.377c-0.005,0.124-0.008,0.249-0.009,0.373c-0.003,0.114-0.005,0.227-0.008,0.341
									c-0.008,0.601-0.006,1.188,0.006,1.763c0.001,0.128,0.005,0.253,0.009,0.38c0.005,0.204,0.012,0.407,0.02,0.607
									c0.006,0.163,0.014,0.323,0.022,0.482c0.025,0.479,0.055,0.95,0.092,1.408c0.023,0.29,0.049,0.576,0.077,0.857
									c0,0.011,0.002,0.021,0.003,0.032c0.002,0.021,0.005,0.041,0.006,0.063c0.002,0.025,0.005,0.048,0.008,0.072
									c0.012,0.123,0.025,0.244,0.038,0.364c0.001,0.009,0.001,0.018,0.003,0.028c0.009,0.085,0.018,0.169,0.029,0.254
									c0.008,0.069,0.015,0.137,0.025,0.204c0.014,0.118,0.029,0.237,0.045,0.355c0.023,0.18,0.046,0.358,0.072,0.535
									c0.042,0.292,0.085,0.578,0.131,0.859c0.025,0.151,0.049,0.3,0.075,0.446c0.025,0.147,0.052,0.293,0.079,0.438l0.001,0.003
									c0.389,2.105,0.885,3.891,1.382,5.35C273.986,263.183,275.027,264.787,275.027,264.787z"/>
								<path style="fill:#F27584;" d="M272.414,233.129c-2.01,8.562-1.859,15.536-1.013,20.738
									c-19.751,2.583-27.211-11.292-29.487-17.301c1.157-0.75,3.404-2.173,6.181-3.771l19.401-3.046c0,0,2.179,1.274,4.949,3.247
									C272.436,233.04,272.425,233.085,272.414,233.129z"/>
								<path style="fill:#3D2E56;" d="M346.95,164.584c0,0.001-0.001,0.003-0.001,0.005c0-0.001-0.002-0.003-0.002-0.005
									c-0.081-0.177-2.74-5.887-10.91-9.216c0,0,7.53,18.442-5.225,36.576l-0.307-8.145c0,0-0.154,7.838-4.764,9.989
									c-1.071,0.499-7.618,1.325-17.035,2.296c-2.623,0.269-5.469,0.55-8.482,0.841c-32.688,3.138-84.979,7.16-84.979,7.16
									s-6.19,0.427-13.613-1.466c-10.197-2.599-22.719-9.577-24.704-28.056c-0.04-0.349-0.074-0.702-0.103-1.06
									c0,0-6.916,8.76-2.152,24.128c0,0-4.149-1.998-5.225-4.303c-1.076-2.305-6.147-12.909,1.998-29.045
									c4.612-9.136,5.282-18.915,6.167-26.207c0.679-5.588,1.483-9.717,4.283-10.983c6.455-2.92,13.678-0.307,13.678-0.307
									s-0.461-25.05,22.284-36.576c3.306-1.675,6.682-2.974,10.064-3.988c19.892-5.969,39.986-2.13,46.949-7.383
									c0.001-0.002,0.001-0.002,0.001-0.002s0.615,7.223-8.76,12.755c0,0,23.82-0.922,34.578,2.459
									c3.516,1.105,5.915,4.131,8.448,7.875c5.219,7.713,11.005,18.475,28.282,21.786c0,0-2.983,3.048-8.4,3.246
									c-2.923,0.108-6.554-0.615-10.81-3.092c0,0,4.457,8.299,17.366,18.595C348.33,152.63,346.984,164.304,346.95,164.584z"/>
								<path style="fill:#FFC3B3;" d="M310.326,169.967c0,0-6.916,36.576-11.68,47.026c-0.191,0.417-0.415,0.842-0.67,1.276
									c-6.176,10.436-30.937,25.323-40.824,25.618c-0.042,0.002-0.086-0.003-0.129-0.005c-0.045,0.002-0.088,0.006-0.131,0.005
									c-10.297-0.307-36.729-16.444-41.494-26.894c-0.427-0.938-0.871-2.084-1.326-3.395
									c-4.623-13.319-10.353-43.631-10.353-43.631s-3.688-23.359,2.305-40.879c5.993-17.519,13.37-6.762,23.359-8.299
									c7.397-1.137,20.269,4.128,27.639,7.188c7.369-3.06,20.241-8.325,27.638-7.188c9.989,1.537,17.366-9.221,23.359,8.299
									C314.014,146.608,310.326,169.967,310.326,169.967z"/>
								<path style="fill:#8EADCE;" d="M263.808,277.543c-0.154,0.042-0.306,0.092-0.455,0.154c-2.394,0.97-4.295,4.365-5.522,7.22
									c-0.252,0.585-0.475,1.149-0.668,1.664c-0.001,0.005-0.003,0.009-0.005,0.012c-0.08,0.214-0.28,0.309-0.467,0.289
									c-0.051-0.005-0.1-0.018-0.146-0.042c-0.098-0.044-0.181-0.128-0.226-0.247c-0.002-0.003-0.003-0.008-0.005-0.012
									c-0.3-0.798-0.67-1.709-1.107-2.642c-1.222-2.609-2.958-5.382-5.084-6.242c-0.149-0.061-0.301-0.112-0.455-0.154
									c-4.569-1.219,2.331-5.303,2.457-5.377c0.001-0.002,0.001-0.002,0.001-0.002s3.787,0,4.61,9.722
									c0.824-9.722,4.61-9.722,4.61-9.722s0,0,0.001,0.002C261.477,272.239,268.377,276.324,263.808,277.543z"/>
								<path style="opacity:0.2;fill:#F27584;" d="M297.976,218.269c-6.176,10.436-30.937,25.323-40.824,25.618
									c-0.042,0.002-0.086-0.003-0.129-0.005c-0.045,0.002-0.088,0.006-0.131,0.005c-10.297-0.307-36.729-16.444-41.494-26.894
									c-0.427-0.938-0.871-2.084-1.326-3.395c5.162,7.148,16.825,17.329,41.744,18.609
									C276.975,233.294,290.261,225.553,297.976,218.269z"/>
								<path style="opacity:0.58;fill:#1E143A;" d="M203.291,176.877c0,0-4.248-14.232-4.446-23.711
									c-0.198-9.479-5.576,12.344-0.351,25.407C203.719,191.636,203.291,176.877,203.291,176.877z"/>
								<g>
									<path style="fill:#FFC3B3;" d="M211.557,189.023c0,0-5.071-19.364-19.825-15.061c-14.753,4.303-2.152,31.043,9.528,33.195
										c11.68,2.152,13.985-8.145,13.985-8.145L211.557,189.023z"/>
									<path style="opacity:0.2;fill:#F27584;" d="M194.652,184.567c0,0-1.076,6.454,0.615,10.758
										c1.69,4.303,2.305-0.461,7.069,3.227c4.764,3.688,7.991-0.307,5.994-5.071
										C206.332,188.716,197.572,177.651,194.652,184.567z"/>
									<g>
										<g>
											<path style="fill:#F27584;" d="M208.791,195.939c-0.313,0-0.608-0.193-0.722-0.505
												c-2.375-6.492-7.411-12.071-10.775-11.944c-0.488,0.019-0.867,0.207-1.195,0.593c-1.359,1.599-1.177,5.815-0.992,7.304
												c0.052,0.421-0.246,0.805-0.667,0.857c-0.422,0.053-0.805-0.246-0.857-0.667c-0.077-0.616-0.693-6.088,1.345-8.488
												c0.609-0.717,1.386-1.099,2.308-1.135c2.101-0.08,4.588,1.361,6.999,4.059c2.179,2.438,4.102,5.68,5.278,8.892
												c0.146,0.398-0.059,0.84-0.458,0.986C208.968,195.924,208.878,195.939,208.791,195.939z"/>
										</g>
										<g>
											<path style="fill:#F27584;" d="M206.049,189.266c1.149,2.935,0.482,5.94-1.491,6.712
												c-1.973,0.772-4.503-0.981-5.652-3.915c-1.149-2.935-0.482-5.94,1.491-6.712
												C202.369,184.578,204.9,186.331,206.049,189.266z"/>
										</g>
									</g>
								</g>
								<g>
									<path style="fill:#FFC3B3;" d="M302.457,189.023c0,0,5.071-19.364,19.825-15.061c14.753,4.303,2.152,31.043-9.528,33.195
										c-11.68,2.152-13.985-8.145-13.985-8.145L302.457,189.023z"/>
									<path style="opacity:0.2;fill:#F27584;" d="M319.361,184.567c0,0,1.076,6.454-0.615,10.758
										c-1.69,4.303-2.305-0.461-7.069,3.227c-4.764,3.688-7.991-0.307-5.993-5.071
										C307.682,188.716,316.441,177.651,319.361,184.567z"/>
									<g>
										<g>
											<path style="fill:#F27584;" d="M305.223,195.939c0.313,0,0.608-0.193,0.722-0.505
												c2.375-6.492,7.411-12.071,10.775-11.944c0.488,0.019,0.867,0.207,1.195,0.593c1.359,1.599,1.177,5.815,0.992,7.304
												c-0.052,0.421,0.246,0.805,0.668,0.857c0.421,0.053,0.805-0.246,0.857-0.667c0.077-0.616,0.694-6.088-1.345-8.488
												c-0.609-0.717-1.386-1.099-2.308-1.135c-2.101-0.08-4.588,1.361-6.999,4.059c-2.179,2.438-4.102,5.68-5.278,8.892
												c-0.146,0.398,0.059,0.84,0.458,0.986C305.046,195.924,305.135,195.939,305.223,195.939z"/>
										</g>
										<g>
											<path style="fill:#F27584;" d="M307.965,189.266c-1.149,2.935-0.482,5.94,1.491,6.712
												c1.973,0.772,4.503-0.981,5.652-3.915c1.149-2.935,0.482-5.94-1.491-6.712
												C311.644,184.578,309.114,186.331,307.965,189.266z"/>
										</g>
									</g>
								</g>
								<g>
									<path style="fill:#1E143A;" d="M214.938,148.913c0,0,6.301-9.528,17.519-11.219c11.219-1.691-6.916-11.372-6.916-11.372
										l-14.907,9.067L214.938,148.913z"/>
									<path style="fill:#3D2E56;" d="M318.672,139.999c0,0-1.028,8.781-2.674,19.805c-0.002,0.005-0.002,0.009-0.003,0.014
										c-1.226,8.205-7.105,15.683-8.849,23.673c-2.224,10.184-0.423,19.972-2.868,19.843c-0.317-0.017-0.63-0.165-0.942-0.458
										c-7.066-6.624-2.946-29.344-2.802-30.123c0.002-0.014,0.003-0.02,0.003-0.02c-9.889-0.449-15.688-5.5-19.033-10.559
										c-2.957-4.471-3.999-8.947-4.257-10.263l-0.015-0.085c-0.026-0.131-0.042-0.221-0.048-0.266l-0.006-0.035
										c-0.001,0.1-0.003,0.201-0.003,0.301c-0.04,7.586,4.023,13.943,4.149,14.14c0.001,0.002,0.001,0.003,0.003,0.005
										c-20.598,2.424-24.18-12.319-24.28-12.746c0.018,0.211,0.04,0.418,0.065,0.624c0.899,7.742,4.726,11.538,4.849,11.658
										c0.002,0.002,0.002,0.002,0.003,0.003c-27.816-2.305-35.961-33.81-35.961-33.81c-2.305,2.305-3.535,9.989-3.535,9.989
										l-4.61-3.074c-5.993,9.067,2.152,29.507,2.152,29.507c-5.746-1.438-8.944-6.636-9.338-7.304
										c0.562,1.15,7.553,15.46,5.342,15.757c-2.305,0.307-4.61-1.844-4.61-1.844s3.074,22.13,0.307,21.362
										c-2.766-0.768-7.223-19.825-7.223-19.825l-5.072-17.981l0.461-21.208c0,0,12.141-23.974,17.058-25.511
										c4.918-1.537,32.426-1.383,43.952-2.613c11.526-1.229,39.649,4.149,39.649,4.149L318.672,139.999z"/>
									<path style="opacity:0.58;fill:#1E143A;" d="M261.961,165.507c-13.058-9.68-6.759-24.125-6.759-24.125
										c0.144,6.086,1.73,11.83,1.91,12.467C258.011,161.592,261.838,165.387,261.961,165.507z"/>
								</g>
								<path style="opacity:0.58;fill:#1E143A;" d="M315.214,173.692c-2.344,0.583-4.314,1.837-5.951,3.389
									c0.575-2.635,2.988-14.466,2.251-24.063C310.727,142.76,317.667,156.016,315.214,173.692z"/>
								<path style="opacity:0.58;fill:#1E143A;" d="M227.922,86.219c-21.372,18.071-10.71,55.415-28.967,48.248
									c-13.166-5.168-18.904-0.498-21.341,3.607c0.679-5.588,1.483-9.717,4.283-10.983c6.455-2.92,13.678-0.307,13.678-0.307
									s-0.461-25.05,22.284-36.576C221.163,88.532,224.54,87.233,227.922,86.219z"/>
								<path style="opacity:0.58;fill:#1E143A;" d="M300.534,172.753c0.002-0.014,0.003-0.02,0.003-0.02
									c-9.889-0.449-15.688-5.5-19.033-10.559c-2.957-4.471-3.999-8.947-4.257-10.263l-0.015-0.085
									c-0.026-0.131-0.042-0.221-0.048-0.266l-0.006-0.035c-0.001,0.1-0.003,0.201-0.003,0.301
									c-1.176-12.107,3.23-21.816,3.23-21.816c0.307,29.353,21.208,42.569,21.208,42.569
									C301.251,172.649,300.891,172.707,300.534,172.753z"/>
								<g>
									<polyline style="fill:none;" points="257.115,339.474 256.954,324.575 256.508,283.383 									"/>
									<path style="fill:#8EADCE;" d="M258.42,339.313c-0.367,0.091-0.75,0.143-1.163,0.158c-0.02,0.002-0.038,0.005-0.057,0.005
										c-0.029,0-0.057,0-0.085-0.002h-0.014c-0.034,0.002-0.066,0.002-0.1,0.002c-0.018,0-0.037-0.003-0.055-0.005
										c-0.404-0.015-0.779-0.066-1.139-0.152l-0.158-14.521l-0.381-35.3l-0.06-5.559l-0.006-0.542l2.613-0.028l0.017,1.548
										l0.078,7.244l0.347,32.155L258.42,339.313z"/>
								</g>
								<g>
									<path style="fill:#D7E9F4;" d="M252.128,272.164c0,0,0,0-0.001,0.002c-0.028,0.068-0.931,2.234-2.003,5.531
										c-0.042,0.128-0.083,0.257-0.124,0.387c-0.39,1.22-0.801,2.583-1.194,4.042c-1.291,4.785-2.421,10.608-2.21,15.857
										c0,0-5.533-1.076-8.145-12.755c-2.613-11.68-6.301-15.983-6.301-15.983s0.512-1.503,0.908-3.573
										c0.064-0.335,0.126-0.685,0.181-1.047c0.329-2.141,0.458-4.667-0.168-6.753l4.61-1.537l0.768-6.301l3.673,0.189
										c0.015,0.321,0.031,0.644,0.045,0.968c0.014,0.326,0.026,0.652,0.038,0.979c0.003,0.086,0.006,0.174,0.009,0.261
										c0.009,0.24,0.017,0.481,0.023,0.722c0.001,0.054,0.003,0.107,0.005,0.161c0.008,0.275,0.015,0.552,0.021,0.827
										l-2.277,4.037c0,0,0.174,0.91,0.679,2.282c0.313,0.853,0.756,1.884,1.365,2.989
										C243.762,266.593,246.837,270.32,252.128,272.164z"/>
									<path style="fill:#D7E9F4;" d="M281.328,269.244c0,0-1.051,1.226-2.43,4.149c-1.203,2.549-2.654,6.392-3.871,11.833
										c-2.613,11.68-8.145,12.755-8.145,12.755c0.188-4.663-0.684-9.779-1.786-14.217c-0.535-2.158-1.125-4.154-1.675-5.86
										c-0.023-0.071-0.045-0.14-0.068-0.209c-1.071-3.296-1.975-5.463-2.003-5.531c-0.001-0.002-0.001-0.002-0.001-0.002
										c7.266-2.533,10.352-8.614,11.518-11.859c0.025-0.069,0.048-0.135,0.071-0.201c0.407-1.171,0.552-1.924,0.552-1.924
										l-1.933-3.426l-0.001-0.003c-0.026-0.145-0.054-0.29-0.079-0.438c-0.026-0.146-0.051-0.295-0.075-0.446
										c-0.046-0.281-0.089-0.567-0.131-0.859c-0.025-0.177-0.049-0.355-0.072-0.535c-0.015-0.118-0.031-0.237-0.045-0.355
										c-0.009-0.068-0.017-0.135-0.025-0.204c-0.011-0.083-0.02-0.168-0.029-0.254c-0.002-0.009-0.002-0.018-0.003-0.028
										c-0.014-0.12-0.026-0.241-0.038-0.364c-0.003-0.023-0.006-0.048-0.008-0.072c-0.003-0.022-0.005-0.042-0.006-0.063
										c-0.001-0.011-0.003-0.022-0.003-0.032c-0.028-0.281-0.054-0.567-0.077-0.857l4.062-0.209l0.768,6.301l4.61,1.537
										c-0.558,1.857-0.516,4.063-0.269,6.035C280.505,266.831,281.328,269.244,281.328,269.244z"/>
									<path style="opacity:0.28;fill:#8EADCE;" d="M248.806,282.126c-1.291,4.785-2.421,10.608-2.21,15.857
										c0,0-5.533-1.076-8.145-12.755c-2.613-11.68-6.301-15.983-6.301-15.983s0.512-1.503,0.908-3.573
										c0.902,2.86,3.333,8.738,8.773,12.025c1.614,0.976,3.177,1.325,4.633,1.276c1.271-0.043,2.46-0.389,3.535-0.888
										C249.61,279.304,249.199,280.667,248.806,282.126z"/>
									<path style="opacity:0.28;fill:#8EADCE;" d="M278.898,273.393c-1.203,2.549-2.654,6.392-3.871,11.833
										c-2.613,11.68-8.145,12.755-8.145,12.755c0.188-4.663-0.684-9.779-1.786-14.217c-0.535-2.158-1.125-4.154-1.675-5.86
										c1.114,0.581,2.545,1.01,4.371,1.079c0.624,0.026,1.293,0.009,2.01-0.058C273.588,278.569,276.677,276.02,278.898,273.393z
										"/>
								</g>
							</g>
						</g>
						<g>
							<g>
								<path style="fill:#EEF9FF;" d="M338.224,363.218l-5.394,80.919l-0.012,0.195c-0.436,6.547-5.875,11.634-12.436,11.634
									H190.67c-6.576,0-12.019-5.108-12.437-11.669l-2.422-37.967l-2.751-43.147c-0.217-3.396,0.945-6.547,2.991-8.923
									c2.279-2.646,5.655-4.334,9.447-4.334H325.79C332.999,349.926,338.704,356.024,338.224,363.218z"/>
								
									<ellipse transform="matrix(0.7071 -0.7071 0.7071 0.7071 -207.8795 298.032)" style="opacity:0.28;fill:#8EADCE;" cx="255.817" cy="399.949" rx="15.137" ry="15.137"/>
							</g>
							<path style="opacity:0.67;fill:#D7E9F4;" d="M332.83,444.136l-0.012,0.195c-0.436,6.547-5.875,11.634-12.436,11.634H190.67
								c-6.576,0-12.019-5.108-12.437-11.669l-2.422-37.967c6.975,17.354,22.133,33.88,53.88,38.263
								C284.401,452.146,318.822,447.17,332.83,444.136z"/>
						</g>
					</g>
					<g>
						<path style="fill:#3D2E56;" d="M281.108,169.506c-4.124-1.076-4.303-7.838-8.145-7.377c-3.842,0.461-6.916,8.76,1.229,13.37
							c8.145,4.61,14.347,3.899,15.214,0.307C290.483,171.35,284.643,170.428,281.108,169.506z"/>
						<g>
							<path style="fill:#3D2E56;" d="M232.765,169.506c4.124-1.076,4.303-7.838,8.145-7.377c3.842,0.461,6.915,8.76-1.23,13.37
								c-8.145,4.61-14.347,3.899-15.214,0.307C223.39,171.35,229.23,170.428,232.765,169.506z"/>
							<g>
								<path style="fill:#F27584;" d="M235.378,185.719c-0.016,0-0.032,0-0.048-0.001c-0.551-0.026-0.977-0.494-0.95-1.045
									c0.008-0.16,0.225-3.924,3.602-5.05c3.265-1.088,5.778,1.021,5.884,1.111c0.419,0.359,0.467,0.99,0.108,1.408
									c-0.359,0.419-0.99,0.467-1.408,0.108c-0.067-0.056-1.778-1.457-3.952-0.733c-2.093,0.697-2.237,3.224-2.238,3.249
									C236.35,185.303,235.908,185.719,235.378,185.719z"/>
							</g>
							<g>
								<path style="fill:#F27584;" d="M278.561,185.719c-0.528,0-0.969-0.414-0.997-0.947c-0.006-0.109-0.173-2.565-2.238-3.254
									c-2.204-0.735-3.935,0.718-3.952,0.733c-0.419,0.359-1.049,0.311-1.408-0.108c-0.359-0.419-0.311-1.049,0.108-1.408
									c0.105-0.09,2.618-2.2,5.884-1.111c3.377,1.126,3.594,4.89,3.602,5.05c0.026,0.551-0.399,1.019-0.95,1.045
									C278.593,185.719,278.577,185.719,278.561,185.719z"/>
							</g>
							<g>
								<path style="fill:#F27584;" d="M256.893,199.089c-0.023,0-0.048-0.001-0.073-0.002c-0.135,0.006-0.254-0.007-0.37-0.044
									c-1.312-0.249-4.001-1.614-4.754-3.119c-0.783-1.566,0.515-4.27,0.932-5.061c0.257-0.488,0.861-0.676,1.349-0.419
									c0.488,0.257,0.676,0.861,0.419,1.349c-0.666,1.27-1.11,2.844-0.913,3.237c0.382,0.764,2.498,1.921,3.337,2.051
									c0.839-0.13,2.955-1.287,3.337-2.051c0.198-0.396-0.245-1.97-0.913-3.237c-0.257-0.488-0.069-1.092,0.419-1.349
									c0.488-0.257,1.092-0.07,1.349,0.419c0.417,0.791,1.715,3.495,0.932,5.061c-0.755,1.509-3.454,2.877-4.763,3.121
									C257.089,199.074,256.992,199.089,256.893,199.089z"/>
							</g>
							<path style="fill:#3D2E56;" d="M263.284,218.53c-2.882-0.702-5.024-0.988-6.499-1.09c-1.477,0.102-3.619,0.387-6.501,1.09
								c-6.301,1.537-7.069-3.227-5.532-5.993c0.481-0.867,1.275-1.647,2.277-2.325c2.032-1.377,4.919-2.331,7.792-2.726
								c0.659-0.091,1.317-0.152,1.964-0.181c0.647,0.031,1.305,0.091,1.963,0.181c3.104,0.427,6.226,1.508,8.266,3.068
								c0.779,0.595,1.4,1.259,1.803,1.984C270.353,215.303,269.585,220.067,263.284,218.53z"/>
							<path style="fill:#FFFFFF;" d="M267.014,210.552c-0.607,1.025-1.498,2.486-1.976,3.06c-0.569,0.682-5.425,0.522-7.915,0.395
								c-2.49,0.128-7.346,0.287-7.914-0.395c-0.533-0.639-1.584-2.39-2.179-3.401c2.032-1.377,4.919-2.331,7.792-2.726
								c0.659-0.091,1.317-0.152,1.964-0.181c0.647,0.031,1.305,0.091,1.963,0.181C261.852,207.912,264.973,208.992,267.014,210.552
								z"/>
							<path style="fill:#F27584;" d="M253.051,221.757c0,0,4.61,0.615,7.684,0C260.734,221.757,257.2,219.298,253.051,221.757z"/>
						</g>
					</g>
				</g>
			</g>
		</g>
		<g>
			<g>
				
					<ellipse transform="matrix(0.7071 -0.7071 0.7071 0.7071 27.6192 315.7658)" style="fill:#CDE281;" cx="394.973" cy="124.544" rx="48.472" ry="48.472"/>
				<g>
					<path style="fill:#CDE281;" d="M364.892,146.652c0,0-15.097,18.535-10.839,21.461c4.258,2.926,27.871-10.731,27.871-10.731
						L364.892,146.652z"/>
				</g>
			</g>
			<g>
				<path style="fill:#FFFFFF;" d="M382.911,100.24c2.975-2.896,7.003-4.32,11.088-4.679c2.127-0.187,4.279-0.133,6.398,0.126
					c2.31,0.283,4.744,0.741,6.773,1.932c4.163,2.442,5.127,8.168,5.312,12.587c0.101,2.422-0.048,4.883-0.736,7.219
					c-0.741,2.518-2.226,4.647-4.167,6.394c-5.933,5.339-15.496,6.029-22.168,1.687c-6.628-4.313-9.789-13.268-7.42-20.791
					c0.668-2.122,1.821-4.237,3.651-5.573c1.715-1.252,3.868-1.695,5.954-1.746c4.778-0.118,9.845,1.258,14.076,3.435
					c2.113,1.087,4.11,2.518,5.24,4.665c1.048,1.991,1.272,4.331,1.146,6.547c-0.134,2.369-0.807,4.731-2.215,6.664
					c-1.359,1.866-3.369,3.234-5.477,4.124c-4.53,1.911-9.843,1.774-14.641,1.284c-4.077-0.417-10.38-1.199-10.603-6.457
					c-0.185-4.37,3.917-7.688,7.979-8.213c1.885-0.243,3.911,0.051,5.521,1.102c1.562,1.019,2.348,2.777,2.367,4.607
					c0.049,4.654-3.487,8.265-5.668,12.048c-1.155,2.004-2.615,4.722-1.6,7.049c0.85,1.949,3.006,3.127,4.774,4.121
					c3.906,2.197,8.376,3.601,12.883,2.895c4.274-0.67,7.96-3.294,10.971-6.274c3.577-3.54,6.846-7.693,9.261-12.11
					c1.121-2.051,2.299-4.355,2.595-6.704c0.32-2.544-0.961-4.372-2.918-5.852c-3.564-2.693-8.28-3.849-12.509-2.099
					c-2.161,0.894-4.025,2.383-5.711,3.979c-1.955,1.851-3.701,3.932-5.209,6.162c-1.312,1.941-2.648,4.105-3.018,6.459
					c-0.362,2.297,0.396,4.365,1.759,6.199c2.886,3.883,7.217,7.348,12.102,8.139c4.044,0.654,8.596-0.419,11.303-3.67
					c0.784-0.941,1.388-2.023,1.522-3.258c0.13-1.194-0.229-2.331-0.737-3.399c-1.041-2.191-2.607-4.121-4.087-6.026
					c-3.369-4.336-6.696-8.802-10.375-12.883c-1.6-1.775-3.472-3.173-5.758-3.926c-2.237-0.737-4.65-0.802-6.962-0.447
					c-4.885,0.751-9.128,3.658-12.934,6.64c-2.024,1.586-3.963,3.28-5.807,5.073c-1.767,1.719-3.563,3.568-4.67,5.8
					c-2.09,4.214-0.842,8.657,2.09,12.105c3.257,3.831,8.132,6.166,13.027,7.022c4.273,0.748,8.701,0.499,12.867-0.712
					c2.096-0.61,4.139-1.457,6.043-2.525c2.02-1.133,4.068-2.514,5.533-4.33c1.4-1.736,2.255-3.826,1.932-6.08
					c-0.257-1.8-1.247-3.463-2.576-4.686c-3.065-2.822-7.308-3.232-11.144-1.88c-4.43,1.562-8.52,4.818-11.285,8.582
					c-1.429,1.945-2.416,4.178-2.843,6.555c-0.415,2.316-0.409,4.692-0.891,6.996c-0.484,2.309-1.595,4.194-3.344,5.776
					c-1.784,1.613-3.925,2.776-6.025,3.919c-1.445,0.786-0.19,3.006,1.251,2.222c4.26-2.318,8.688-5.027,10.235-9.915
					c0.714-2.257,0.773-4.658,1.043-6.991c0.274-2.36,0.94-4.524,2.252-6.522c1.375-2.095,3.265-3.868,5.265-5.361
					c1.659-1.238,3.499-2.339,5.483-2.959c3.427-1.072,7.501-0.456,9.439,2.893c2.383,4.12-2.162,7.603-5.348,9.431
					c-3.645,2.09-7.796,3.287-11.995,3.449c-4.558,0.175-9.198-0.825-13.097-3.246c-3.374-2.094-7.091-5.993-6.4-10.332
					c0.381-2.393,2.009-4.383,3.635-6.079c1.758-1.834,3.652-3.549,5.609-5.169c3.65-3.021,7.743-6.081,12.479-7.062
					c2.14-0.443,4.401-0.39,6.484,0.297c2.365,0.78,4.031,2.536,5.584,4.403c3.464,4.167,6.848,8.412,10.145,12.712
					c0.676,0.882,1.332,1.782,1.924,2.724c0.585,0.932,1.301,2.006,1.434,3.128c0.248,2.091-2.171,3.799-3.829,4.543
					c-3.994,1.794-8.481,0.527-11.897-1.897c-1.925-1.366-3.827-3.193-5.081-5.206c-1.2-1.927-1.066-3.876-0.109-5.876
					c1.105-2.309,2.642-4.469,4.311-6.401c1.542-1.785,3.267-3.545,5.235-4.861c1.873-1.252,3.929-1.986,6.202-1.794
					c2.076,0.176,4.054,1.076,5.738,2.269c0.822,0.582,1.747,1.302,2.046,2.305c0.277,0.927,0.002,1.944-0.289,2.834
					c-0.818,2.497-2.165,4.853-3.603,7.039c-2.57,3.907-5.679,7.75-9.306,10.728c-3.278,2.693-7.294,4.322-11.581,3.646
					c-2.131-0.336-4.177-1.086-6.09-2.07c-0.972-0.5-1.919-1.054-2.832-1.655c-0.695-0.458-1.549-1.023-1.881-1.827
					c-0.387-0.936,0.212-2.151,0.592-2.999c0.576-1.284,1.33-2.483,2.102-3.656c1.298-1.974,2.697-3.892,3.623-6.078
					c1.547-3.65,1.896-8.284-1.271-11.217c-3.023-2.8-7.739-3.015-11.41-1.496c-4.142,1.715-7.527,5.695-7.062,10.386
					c0.216,2.181,1.212,4.128,2.937,5.496c1.997,1.584,4.537,2.214,7.008,2.606c8.728,1.384,21.014,1.59,26.11-7.219
					c2.313-3.997,2.676-9.539,0.915-13.813c-1.907-4.629-6.724-6.976-11.198-8.51c-4.332-1.485-9.393-2.486-13.946-1.5
					c-4.758,1.03-7.781,4.818-9.061,9.36c-2.158,7.656,0.65,16.518,6.727,21.626c6.341,5.329,15.619,6.08,22.957,2.392
					c4.176-2.099,7.644-5.715,9.062-10.216c1.46-4.634,1.18-10.021-0.048-14.675c-0.572-2.167-1.46-4.265-2.9-6
					c-1.645-1.983-4.035-3.139-6.486-3.789c-4.192-1.113-8.76-1.315-13.032-0.597c-3.917,0.659-7.659,2.315-10.524,5.104
					C379.954,99.561,381.735,101.385,382.911,100.24L382.911,100.24z"/>
			</g>
			<g>
				
					<ellipse transform="matrix(0.7071 -0.7071 0.7071 0.7071 -122.5497 144.3188)" style="fill:#CDE281;" cx="112.933" cy="220.09" rx="57.806" ry="57.806"/>
				<g>
					<polygon style="fill:#EEF9FF;" points="87.237,207.386 83.168,248.072 143.555,248.072 138.202,206.315 					"/>
					<polygon style="fill:#60A555;" points="82.312,197.75 83.382,210.17 141.2,210.17 141.2,198.606 					"/>
					<g style="opacity:0.28;">
						<g>
							<g>
								<path style="fill:#8EADCE;" d="M106.006,216.445c-2.293,2.096-4.586,4.193-6.878,6.289c-0.414,0.378-0.384,1.083,0,1.467
									c0.412,0.412,1.052,0.379,1.467,0c2.293-2.096,4.586-4.192,6.878-6.289c0.413-0.378,0.384-1.083,0-1.467
									C107.061,216.033,106.421,216.066,106.006,216.445L106.006,216.445z"/>
							</g>
							<g>
								<path style="fill:#8EADCE;" d="M99.247,217.899c2.738,2.394,5.381,4.893,7.924,7.493c0.935,0.956,2.401-0.511,1.467-1.467
									c-2.543-2.6-5.186-5.1-7.924-7.493c-0.421-0.369-1.052-0.415-1.467,0C98.87,216.809,98.823,217.529,99.247,217.899
									L99.247,217.899z"/>
							</g>
							<g>
								<path style="fill:#8EADCE;" d="M129.017,216.863c-1.073,1.307-2.202,2.567-3.387,3.774
									c-0.585,0.595-1.182,1.177-1.793,1.746c-0.297,0.277-0.597,0.55-0.9,0.82c-0.168,0.15-0.337,0.299-0.507,0.447
									c-0.068,0.059-0.136,0.119-0.204,0.177c-0.233,0.197,0.065-0.071,0.212-0.055c0.174,0.047,0.349,0.094,0.523,0.142
									c-0.025-0.014-0.049-0.029-0.074-0.043c-0.484-0.282-1.136-0.112-1.419,0.372c-0.284,0.485-0.113,1.136,0.372,1.419
									c1.084,0.632,2.032-0.511,2.766-1.173c0.704-0.634,1.391-1.285,2.062-1.954c1.342-1.337,2.614-2.742,3.816-4.206
									c0.355-0.433,0.423-1.044,0-1.467C130.118,216.496,129.374,216.428,129.017,216.863L129.017,216.863z"/>
							</g>
							<g>
								<path style="fill:#8EADCE;" d="M124.402,220.635c0.828,0.546,1.641,1.116,2.436,1.71c0.193,0.144,0.384,0.29,0.575,0.436
									c-0.079-0.061-0.068-0.053,0.004,0.003c0.047,0.037,0.095,0.074,0.142,0.111c0.095,0.074,0.189,0.149,0.283,0.224
									c0.4,0.318,0.795,0.643,1.185,0.973c0.414,0.35,1.066,0.436,1.467,0c0.354-0.386,0.442-1.093,0-1.467
									c-1.605-1.358-3.29-2.624-5.045-3.781c-0.454-0.299-1.167-0.105-1.419,0.372
									C123.755,219.735,123.917,220.315,124.402,220.635L124.402,220.635z"/>
							</g>
						</g>
						<g>
							<g>
								<path style="fill:#8EADCE;" d="M97.969,233.781c-0.781,0.994-1.632,1.932-2.551,2.801c-0.447,0.423-0.91,0.83-1.387,1.22
									c-0.125,0.103-0.253,0.203-0.379,0.304c-0.144,0.115,0.029-0.021-0.059,0.046c-0.065,0.049-0.129,0.098-0.194,0.147
									c-0.259,0.194-0.523,0.383-0.789,0.568c-0.445,0.309-0.692,0.923-0.372,1.419c0.285,0.442,0.942,0.703,1.419,0.372
									c2.181-1.514,4.138-3.323,5.779-5.411c0.334-0.426,0.446-1.057,0-1.467C99.063,233.438,98.327,233.325,97.969,233.781
									L97.969,233.781z"/>
							</g>
							<g>
								<path style="fill:#8EADCE;" d="M93.461,235.891c2.041,1.826,4.129,3.598,6.263,5.314c0.422,0.339,1.06,0.443,1.467,0
									c0.346-0.377,0.451-1.104,0-1.467c-2.134-1.717-4.222-3.489-6.263-5.314c-0.404-0.362-1.074-0.428-1.467,0
									C93.098,234.82,93.029,235.505,93.461,235.891L93.461,235.891z"/>
							</g>
							<g>
								<path style="fill:#8EADCE;" d="M113.172,233.414c-1.14,0.854-2.227,1.772-3.235,2.78c-0.468,0.468-0.915,0.954-1.351,1.452
									c-0.212,0.242-0.424,0.485-0.657,0.708c-0.046,0.044-0.093,0.088-0.141,0.13c0.004-0.003-0.208,0.168-0.117,0.1
									c0.097-0.072-0.109,0.071-0.128,0.083c-0.081,0.051-0.165,0.097-0.25,0.141c-0.482,0.25-0.665,0.965-0.372,1.419
									c0.317,0.492,0.903,0.64,1.419,0.372c0.606-0.314,1.104-0.798,1.552-1.305c0.445-0.503,0.89-1.005,1.361-1.484
									c0.468-0.476,0.953-0.934,1.455-1.375c0.264-0.232,0.532-0.459,0.804-0.68c0.123-0.1,0.246-0.198,0.37-0.296
									c0.036-0.029,0.189-0.146,0.082-0.064c0.084-0.064,0.168-0.127,0.252-0.19c0.433-0.324,0.699-0.911,0.372-1.419
									C114.315,233.358,113.637,233.066,113.172,233.414L113.172,233.414z"/>
							</g>
							<g>
								<path style="fill:#8EADCE;" d="M106.856,233.952c2.392,2.467,4.708,5.006,6.945,7.615c0.365,0.425,1.092,0.375,1.467,0
									c0.422-0.422,0.366-1.04,0-1.467c-2.236-2.609-4.552-5.148-6.945-7.615C107.391,231.526,105.925,232.993,106.856,233.952
									L106.856,233.952z"/>
							</g>
							<g>
								<path style="fill:#8EADCE;" d="M131.266,232.773c-2.041,2.99-4.122,5.995-6.958,8.297c-0.435,0.353-0.367,1.1,0,1.467
									c0.43,0.43,1.031,0.354,1.467,0c2.965-2.406,5.148-5.591,7.283-8.717c0.316-0.463,0.087-1.15-0.372-1.419
									C132.172,232.101,131.583,232.31,131.266,232.773L131.266,232.773z"/>
							</g>
							<g>
								<path style="fill:#8EADCE;" d="M125.374,236.147c2.653,1.782,5.151,3.775,7.482,5.961c0.409,0.383,1.062,0.405,1.467,0
									c0.387-0.387,0.41-1.082,0-1.467c-2.458-2.305-5.105-4.407-7.902-6.286c-0.465-0.312-1.149-0.09-1.419,0.372
									C124.704,235.237,124.908,235.833,125.374,236.147L125.374,236.147z"/>
							</g>
						</g>
					</g>
				</g>
			</g>
		</g>
	</g>
</g>
</svg>
